<mxfile host="app.diagrams.net" modified="2024-04-01T18:40:01.921Z" agent="Mozilla/5.0 (Windows NT 10.0; Win64; x64) AppleWebKit/537.36 (KHTML, like Gecko) Chrome/121.0.0.0 Safari/537.36 OPR/107.0.0.0 (Edition Yx GX)" etag="EEow76pl-vUR_m8C4Gj4" version="24.2.0" type="google">
  <diagram id="C5RBs43oDa-KdzZeNtuy" name="Page-1">
    <mxGraphModel dx="873" dy="513" grid="1" gridSize="10" guides="1" tooltips="1" connect="1" arrows="1" fold="1" page="1" pageScale="1" pageWidth="827" pageHeight="1169" math="0" shadow="0">
      <root>
        <mxCell id="WIyWlLk6GJQsqaUBKTNV-0" />
        <mxCell id="WIyWlLk6GJQsqaUBKTNV-1" parent="WIyWlLk6GJQsqaUBKTNV-0" />
        <mxCell id="zkfFHV4jXpPFQw0GAbJ--0" value="Ninja" style="swimlane;fontStyle=2;align=center;verticalAlign=top;childLayout=stackLayout;horizontal=1;startSize=26;horizontalStack=0;resizeParent=1;resizeLast=0;collapsible=1;marginBottom=0;rounded=0;shadow=0;strokeWidth=1;" parent="WIyWlLk6GJQsqaUBKTNV-1" vertex="1">
          <mxGeometry x="80" y="40" width="120" height="284" as="geometry">
            <mxRectangle x="230" y="140" width="160" height="26" as="alternateBounds" />
          </mxGeometry>
        </mxCell>
        <mxCell id="zkfFHV4jXpPFQw0GAbJ--1" value="Rank" style="text;align=center;verticalAlign=top;spacingLeft=4;spacingRight=4;overflow=hidden;rotatable=0;points=[[0,0.5],[1,0.5]];portConstraint=eastwest;" parent="zkfFHV4jXpPFQw0GAbJ--0" vertex="1">
          <mxGeometry y="26" width="120" height="26" as="geometry" />
        </mxCell>
        <mxCell id="zkfFHV4jXpPFQw0GAbJ--2" value="Weapon" style="text;align=center;verticalAlign=top;spacingLeft=4;spacingRight=4;overflow=hidden;rotatable=0;points=[[0,0.5],[1,0.5]];portConstraint=eastwest;rounded=0;shadow=0;html=0;" parent="zkfFHV4jXpPFQw0GAbJ--0" vertex="1">
          <mxGeometry y="52" width="120" height="26" as="geometry" />
        </mxCell>
        <mxCell id="zkfFHV4jXpPFQw0GAbJ--3" value="Fighting style" style="text;align=center;verticalAlign=top;spacingLeft=4;spacingRight=4;overflow=hidden;rotatable=0;points=[[0,0.5],[1,0.5]];portConstraint=eastwest;rounded=0;shadow=0;html=0;" parent="zkfFHV4jXpPFQw0GAbJ--0" vertex="1">
          <mxGeometry y="78" width="120" height="26" as="geometry" />
        </mxCell>
        <mxCell id="zkfFHV4jXpPFQw0GAbJ--4" value="" style="line;html=1;strokeWidth=1;align=left;verticalAlign=middle;spacingTop=-1;spacingLeft=3;spacingRight=3;rotatable=0;labelPosition=right;points=[];portConstraint=eastwest;" parent="zkfFHV4jXpPFQw0GAbJ--0" vertex="1">
          <mxGeometry y="104" width="120" height="8" as="geometry" />
        </mxCell>
        <mxCell id="zkfFHV4jXpPFQw0GAbJ--5" value="getRank() &#xa;" style="text;align=center;verticalAlign=top;spacingLeft=4;spacingRight=4;overflow=hidden;rotatable=0;points=[[0,0.5],[1,0.5]];portConstraint=eastwest;" parent="zkfFHV4jXpPFQw0GAbJ--0" vertex="1">
          <mxGeometry y="112" width="120" height="26" as="geometry" />
        </mxCell>
        <mxCell id="Qb_UzjCkJs9LgrEMtJJX-1" value="&amp;nbsp;get&lt;span style=&quot;&quot;&gt;Weapon()&lt;/span&gt;" style="text;html=1;align=center;verticalAlign=middle;resizable=0;points=[];autosize=1;strokeColor=none;fillColor=none;" vertex="1" parent="zkfFHV4jXpPFQw0GAbJ--0">
          <mxGeometry y="138" width="120" height="30" as="geometry" />
        </mxCell>
        <mxCell id="Qb_UzjCkJs9LgrEMtJJX-2" value="&amp;nbsp;get&lt;span style=&quot;&quot;&gt;Fstyle()&lt;/span&gt;" style="text;html=1;align=center;verticalAlign=middle;resizable=0;points=[];autosize=1;strokeColor=none;fillColor=none;" vertex="1" parent="zkfFHV4jXpPFQw0GAbJ--0">
          <mxGeometry y="168" width="120" height="30" as="geometry" />
        </mxCell>
        <mxCell id="Qb_UzjCkJs9LgrEMtJJX-4" value="setRank() &#xa;" style="text;align=center;verticalAlign=top;spacingLeft=4;spacingRight=4;overflow=hidden;rotatable=0;points=[[0,0.5],[1,0.5]];portConstraint=eastwest;" vertex="1" parent="zkfFHV4jXpPFQw0GAbJ--0">
          <mxGeometry y="198" width="120" height="26" as="geometry" />
        </mxCell>
        <mxCell id="Qb_UzjCkJs9LgrEMtJJX-5" value="&amp;nbsp;set&lt;span style=&quot;&quot;&gt;Weapon()&lt;/span&gt;" style="text;html=1;align=center;verticalAlign=middle;resizable=0;points=[];autosize=1;strokeColor=none;fillColor=none;" vertex="1" parent="zkfFHV4jXpPFQw0GAbJ--0">
          <mxGeometry y="224" width="120" height="30" as="geometry" />
        </mxCell>
        <mxCell id="Qb_UzjCkJs9LgrEMtJJX-6" value="&amp;nbsp;set&lt;span style=&quot;&quot;&gt;Fstyle()&lt;/span&gt;" style="text;html=1;align=center;verticalAlign=middle;resizable=0;points=[];autosize=1;strokeColor=none;fillColor=none;" vertex="1" parent="zkfFHV4jXpPFQw0GAbJ--0">
          <mxGeometry y="254" width="120" height="30" as="geometry" />
        </mxCell>
        <mxCell id="Qb_UzjCkJs9LgrEMtJJX-8" value="Worker" style="swimlane;fontStyle=0;childLayout=stackLayout;horizontal=1;startSize=30;horizontalStack=0;resizeParent=1;resizeParentMax=0;resizeLast=0;collapsible=1;marginBottom=0;whiteSpace=wrap;html=1;" vertex="1" parent="WIyWlLk6GJQsqaUBKTNV-1">
          <mxGeometry x="320" y="40" width="120" height="210" as="geometry">
            <mxRectangle x="460" y="20" width="60" height="30" as="alternateBounds" />
          </mxGeometry>
        </mxCell>
        <mxCell id="Qb_UzjCkJs9LgrEMtJJX-9" value="Craft" style="text;strokeColor=none;fillColor=none;align=center;verticalAlign=middle;spacingLeft=4;spacingRight=4;overflow=hidden;points=[[0,0.5],[1,0.5]];portConstraint=eastwest;rotatable=0;whiteSpace=wrap;html=1;" vertex="1" parent="Qb_UzjCkJs9LgrEMtJJX-8">
          <mxGeometry y="30" width="120" height="30" as="geometry" />
        </mxCell>
        <mxCell id="Qb_UzjCkJs9LgrEMtJJX-10" value="Salary" style="text;strokeColor=none;fillColor=none;align=center;verticalAlign=middle;spacingLeft=4;spacingRight=4;overflow=hidden;points=[[0,0.5],[1,0.5]];portConstraint=eastwest;rotatable=0;whiteSpace=wrap;html=1;" vertex="1" parent="Qb_UzjCkJs9LgrEMtJJX-8">
          <mxGeometry y="60" width="120" height="30" as="geometry" />
        </mxCell>
        <mxCell id="Qb_UzjCkJs9LgrEMtJJX-18" value="" style="endArrow=none;html=1;rounded=0;exitX=0;exitY=0;exitDx=0;exitDy=0;entryX=1;entryY=0;entryDx=0;entryDy=0;" edge="1" parent="Qb_UzjCkJs9LgrEMtJJX-8" source="Qb_UzjCkJs9LgrEMtJJX-17" target="Qb_UzjCkJs9LgrEMtJJX-17">
          <mxGeometry width="50" height="50" relative="1" as="geometry">
            <mxPoint x="40" y="90" as="sourcePoint" />
            <mxPoint x="120" y="90" as="targetPoint" />
          </mxGeometry>
        </mxCell>
        <mxCell id="Qb_UzjCkJs9LgrEMtJJX-17" value="getCtaft()" style="text;html=1;align=center;verticalAlign=middle;whiteSpace=wrap;rounded=0;" vertex="1" parent="Qb_UzjCkJs9LgrEMtJJX-8">
          <mxGeometry y="90" width="120" height="30" as="geometry" />
        </mxCell>
        <mxCell id="Qb_UzjCkJs9LgrEMtJJX-19" value="getSalary()" style="text;html=1;align=center;verticalAlign=middle;whiteSpace=wrap;rounded=0;" vertex="1" parent="Qb_UzjCkJs9LgrEMtJJX-8">
          <mxGeometry y="120" width="120" height="30" as="geometry" />
        </mxCell>
        <mxCell id="Qb_UzjCkJs9LgrEMtJJX-20" value="setCtaft()" style="text;html=1;align=center;verticalAlign=middle;whiteSpace=wrap;rounded=0;" vertex="1" parent="Qb_UzjCkJs9LgrEMtJJX-8">
          <mxGeometry y="150" width="120" height="30" as="geometry" />
        </mxCell>
        <mxCell id="Qb_UzjCkJs9LgrEMtJJX-21" value="setSalary()" style="text;html=1;align=center;verticalAlign=middle;whiteSpace=wrap;rounded=0;" vertex="1" parent="Qb_UzjCkJs9LgrEMtJJX-8">
          <mxGeometry y="180" width="120" height="30" as="geometry" />
        </mxCell>
        <mxCell id="Qb_UzjCkJs9LgrEMtJJX-23" value="Person" style="swimlane;fontStyle=0;childLayout=stackLayout;horizontal=1;startSize=30;horizontalStack=0;resizeParent=1;resizeParentMax=0;resizeLast=0;collapsible=1;marginBottom=0;whiteSpace=wrap;html=1;" vertex="1" parent="WIyWlLk6GJQsqaUBKTNV-1">
          <mxGeometry x="184" y="390" width="140" height="300" as="geometry" />
        </mxCell>
        <mxCell id="Qb_UzjCkJs9LgrEMtJJX-24" value="Name" style="text;strokeColor=none;fillColor=none;align=center;verticalAlign=middle;spacingLeft=4;spacingRight=4;overflow=hidden;points=[[0,0.5],[1,0.5]];portConstraint=eastwest;rotatable=0;whiteSpace=wrap;html=1;" vertex="1" parent="Qb_UzjCkJs9LgrEMtJJX-23">
          <mxGeometry y="30" width="140" height="30" as="geometry" />
        </mxCell>
        <mxCell id="Qb_UzjCkJs9LgrEMtJJX-25" value="Age" style="text;strokeColor=none;fillColor=none;align=center;verticalAlign=middle;spacingLeft=4;spacingRight=4;overflow=hidden;points=[[0,0.5],[1,0.5]];portConstraint=eastwest;rotatable=0;whiteSpace=wrap;html=1;" vertex="1" parent="Qb_UzjCkJs9LgrEMtJJX-23">
          <mxGeometry y="60" width="140" height="30" as="geometry" />
        </mxCell>
        <mxCell id="Qb_UzjCkJs9LgrEMtJJX-26" value="Gender" style="text;strokeColor=none;fillColor=none;align=center;verticalAlign=middle;spacingLeft=4;spacingRight=4;overflow=hidden;points=[[0,0.5],[1,0.5]];portConstraint=eastwest;rotatable=0;whiteSpace=wrap;html=1;" vertex="1" parent="Qb_UzjCkJs9LgrEMtJJX-23">
          <mxGeometry y="90" width="140" height="30" as="geometry" />
        </mxCell>
        <mxCell id="Qb_UzjCkJs9LgrEMtJJX-31" value="" style="endArrow=none;html=1;rounded=0;entryX=1;entryY=0;entryDx=0;entryDy=0;exitX=0;exitY=0;exitDx=0;exitDy=0;" edge="1" parent="Qb_UzjCkJs9LgrEMtJJX-23" source="Qb_UzjCkJs9LgrEMtJJX-30" target="Qb_UzjCkJs9LgrEMtJJX-30">
          <mxGeometry width="50" height="50" relative="1" as="geometry">
            <mxPoint x="45" y="170" as="sourcePoint" />
            <mxPoint x="95" y="120" as="targetPoint" />
          </mxGeometry>
        </mxCell>
        <mxCell id="Qb_UzjCkJs9LgrEMtJJX-30" value="getName()" style="text;html=1;align=center;verticalAlign=middle;whiteSpace=wrap;rounded=0;" vertex="1" parent="Qb_UzjCkJs9LgrEMtJJX-23">
          <mxGeometry y="120" width="140" height="30" as="geometry" />
        </mxCell>
        <mxCell id="Qb_UzjCkJs9LgrEMtJJX-33" value="getAge()" style="text;html=1;align=center;verticalAlign=middle;whiteSpace=wrap;rounded=0;" vertex="1" parent="Qb_UzjCkJs9LgrEMtJJX-23">
          <mxGeometry y="150" width="140" height="30" as="geometry" />
        </mxCell>
        <mxCell id="Qb_UzjCkJs9LgrEMtJJX-34" value="getGender()" style="text;html=1;align=center;verticalAlign=middle;whiteSpace=wrap;rounded=0;" vertex="1" parent="Qb_UzjCkJs9LgrEMtJJX-23">
          <mxGeometry y="180" width="140" height="30" as="geometry" />
        </mxCell>
        <mxCell id="Qb_UzjCkJs9LgrEMtJJX-35" value="setName()" style="text;html=1;align=center;verticalAlign=middle;whiteSpace=wrap;rounded=0;" vertex="1" parent="Qb_UzjCkJs9LgrEMtJJX-23">
          <mxGeometry y="210" width="140" height="30" as="geometry" />
        </mxCell>
        <mxCell id="Qb_UzjCkJs9LgrEMtJJX-36" value="setAge()" style="text;html=1;align=center;verticalAlign=middle;whiteSpace=wrap;rounded=0;" vertex="1" parent="Qb_UzjCkJs9LgrEMtJJX-23">
          <mxGeometry y="240" width="140" height="30" as="geometry" />
        </mxCell>
        <mxCell id="Qb_UzjCkJs9LgrEMtJJX-37" value="setGender()" style="text;html=1;align=center;verticalAlign=middle;whiteSpace=wrap;rounded=0;" vertex="1" parent="Qb_UzjCkJs9LgrEMtJJX-23">
          <mxGeometry y="270" width="140" height="30" as="geometry" />
        </mxCell>
        <mxCell id="Qb_UzjCkJs9LgrEMtJJX-39" style="edgeStyle=orthogonalEdgeStyle;rounded=0;orthogonalLoop=1;jettySize=auto;html=1;entryX=0.5;entryY=0;entryDx=0;entryDy=0;" edge="1" parent="WIyWlLk6GJQsqaUBKTNV-1" source="Qb_UzjCkJs9LgrEMtJJX-21" target="Qb_UzjCkJs9LgrEMtJJX-23">
          <mxGeometry relative="1" as="geometry" />
        </mxCell>
        <mxCell id="Qb_UzjCkJs9LgrEMtJJX-40" value="Clan" style="swimlane;fontStyle=0;childLayout=stackLayout;horizontal=1;startSize=30;horizontalStack=0;resizeParent=1;resizeParentMax=0;resizeLast=0;collapsible=1;marginBottom=0;whiteSpace=wrap;html=1;" vertex="1" parent="WIyWlLk6GJQsqaUBKTNV-1">
          <mxGeometry x="80" y="750" width="120" height="210" as="geometry" />
        </mxCell>
        <mxCell id="Qb_UzjCkJs9LgrEMtJJX-41" value="Name_Clan" style="text;strokeColor=none;fillColor=none;align=center;verticalAlign=middle;spacingLeft=4;spacingRight=4;overflow=hidden;points=[[0,0.5],[1,0.5]];portConstraint=eastwest;rotatable=0;whiteSpace=wrap;html=1;" vertex="1" parent="Qb_UzjCkJs9LgrEMtJJX-40">
          <mxGeometry y="30" width="120" height="30" as="geometry" />
        </mxCell>
        <mxCell id="Qb_UzjCkJs9LgrEMtJJX-42" value="Population" style="text;strokeColor=none;fillColor=none;align=center;verticalAlign=middle;spacingLeft=4;spacingRight=4;overflow=hidden;points=[[0,0.5],[1,0.5]];portConstraint=eastwest;rotatable=0;whiteSpace=wrap;html=1;" vertex="1" parent="Qb_UzjCkJs9LgrEMtJJX-40">
          <mxGeometry y="60" width="120" height="30" as="geometry" />
        </mxCell>
        <mxCell id="Qb_UzjCkJs9LgrEMtJJX-52" value="" style="endArrow=none;html=1;rounded=0;entryX=1;entryY=0;entryDx=0;entryDy=0;exitX=0;exitY=0;exitDx=0;exitDy=0;" edge="1" parent="Qb_UzjCkJs9LgrEMtJJX-40" source="Qb_UzjCkJs9LgrEMtJJX-51" target="Qb_UzjCkJs9LgrEMtJJX-51">
          <mxGeometry width="50" height="50" relative="1" as="geometry">
            <mxPoint x="25" y="89" as="sourcePoint" />
            <mxPoint x="95" y="89" as="targetPoint" />
          </mxGeometry>
        </mxCell>
        <mxCell id="Qb_UzjCkJs9LgrEMtJJX-51" value="getName_Clan()" style="text;html=1;align=center;verticalAlign=middle;whiteSpace=wrap;rounded=0;" vertex="1" parent="Qb_UzjCkJs9LgrEMtJJX-40">
          <mxGeometry y="90" width="120" height="30" as="geometry" />
        </mxCell>
        <mxCell id="Qb_UzjCkJs9LgrEMtJJX-53" value="getPopulation()" style="text;html=1;align=center;verticalAlign=middle;whiteSpace=wrap;rounded=0;" vertex="1" parent="Qb_UzjCkJs9LgrEMtJJX-40">
          <mxGeometry y="120" width="120" height="30" as="geometry" />
        </mxCell>
        <mxCell id="Qb_UzjCkJs9LgrEMtJJX-54" value="setName_Clan()" style="text;html=1;align=center;verticalAlign=middle;whiteSpace=wrap;rounded=0;" vertex="1" parent="Qb_UzjCkJs9LgrEMtJJX-40">
          <mxGeometry y="150" width="120" height="30" as="geometry" />
        </mxCell>
        <mxCell id="Qb_UzjCkJs9LgrEMtJJX-55" value="setPopulation()" style="text;html=1;align=center;verticalAlign=middle;whiteSpace=wrap;rounded=0;" vertex="1" parent="Qb_UzjCkJs9LgrEMtJJX-40">
          <mxGeometry y="180" width="120" height="30" as="geometry" />
        </mxCell>
        <mxCell id="Qb_UzjCkJs9LgrEMtJJX-45" style="edgeStyle=orthogonalEdgeStyle;rounded=0;orthogonalLoop=1;jettySize=auto;html=1;entryX=0.5;entryY=0;entryDx=0;entryDy=0;" edge="1" parent="WIyWlLk6GJQsqaUBKTNV-1" source="Qb_UzjCkJs9LgrEMtJJX-6" target="Qb_UzjCkJs9LgrEMtJJX-23">
          <mxGeometry relative="1" as="geometry" />
        </mxCell>
        <mxCell id="Qb_UzjCkJs9LgrEMtJJX-46" value="Chakra" style="swimlane;fontStyle=0;childLayout=stackLayout;horizontal=1;startSize=30;horizontalStack=0;resizeParent=1;resizeParentMax=0;resizeLast=0;collapsible=1;marginBottom=0;whiteSpace=wrap;html=1;" vertex="1" parent="WIyWlLk6GJQsqaUBKTNV-1">
          <mxGeometry x="320" y="750" width="120" height="120" as="geometry" />
        </mxCell>
        <mxCell id="Qb_UzjCkJs9LgrEMtJJX-47" value="Type_Chakra" style="text;strokeColor=none;fillColor=none;align=center;verticalAlign=middle;spacingLeft=4;spacingRight=4;overflow=hidden;points=[[0,0.5],[1,0.5]];portConstraint=eastwest;rotatable=0;whiteSpace=wrap;html=1;" vertex="1" parent="Qb_UzjCkJs9LgrEMtJJX-46">
          <mxGeometry y="30" width="120" height="30" as="geometry" />
        </mxCell>
        <mxCell id="Qb_UzjCkJs9LgrEMtJJX-59" value="" style="endArrow=none;html=1;rounded=0;entryX=1;entryY=0;entryDx=0;entryDy=0;exitX=0;exitY=0;exitDx=0;exitDy=0;" edge="1" parent="Qb_UzjCkJs9LgrEMtJJX-46" source="Qb_UzjCkJs9LgrEMtJJX-57" target="Qb_UzjCkJs9LgrEMtJJX-57">
          <mxGeometry width="50" height="50" relative="1" as="geometry">
            <mxPoint x="30" y="59" as="sourcePoint" />
            <mxPoint x="110" y="59" as="targetPoint" />
          </mxGeometry>
        </mxCell>
        <mxCell id="Qb_UzjCkJs9LgrEMtJJX-57" value="getType_Chakra()" style="text;html=1;align=center;verticalAlign=middle;whiteSpace=wrap;rounded=0;" vertex="1" parent="Qb_UzjCkJs9LgrEMtJJX-46">
          <mxGeometry y="60" width="120" height="30" as="geometry" />
        </mxCell>
        <mxCell id="Qb_UzjCkJs9LgrEMtJJX-58" value="setType_Chakra()" style="text;html=1;align=center;verticalAlign=middle;whiteSpace=wrap;rounded=0;" vertex="1" parent="Qb_UzjCkJs9LgrEMtJJX-46">
          <mxGeometry y="90" width="120" height="30" as="geometry" />
        </mxCell>
        <mxCell id="Qb_UzjCkJs9LgrEMtJJX-60" style="edgeStyle=orthogonalEdgeStyle;rounded=0;orthogonalLoop=1;jettySize=auto;html=1;exitX=0.5;exitY=1;exitDx=0;exitDy=0;entryX=0.5;entryY=0;entryDx=0;entryDy=0;" edge="1" parent="WIyWlLk6GJQsqaUBKTNV-1" source="Qb_UzjCkJs9LgrEMtJJX-37" target="Qb_UzjCkJs9LgrEMtJJX-40">
          <mxGeometry relative="1" as="geometry" />
        </mxCell>
        <mxCell id="Qb_UzjCkJs9LgrEMtJJX-61" style="edgeStyle=orthogonalEdgeStyle;rounded=0;orthogonalLoop=1;jettySize=auto;html=1;entryX=0.5;entryY=0;entryDx=0;entryDy=0;" edge="1" parent="WIyWlLk6GJQsqaUBKTNV-1" source="Qb_UzjCkJs9LgrEMtJJX-37" target="Qb_UzjCkJs9LgrEMtJJX-46">
          <mxGeometry relative="1" as="geometry" />
        </mxCell>
        <mxCell id="Qb_UzjCkJs9LgrEMtJJX-72" style="edgeStyle=orthogonalEdgeStyle;rounded=0;orthogonalLoop=1;jettySize=auto;html=1;" edge="1" parent="WIyWlLk6GJQsqaUBKTNV-1" source="Qb_UzjCkJs9LgrEMtJJX-62" target="Qb_UzjCkJs9LgrEMtJJX-66">
          <mxGeometry relative="1" as="geometry" />
        </mxCell>
        <mxCell id="Qb_UzjCkJs9LgrEMtJJX-62" value="Village" style="swimlane;fontStyle=0;childLayout=stackLayout;horizontal=1;startSize=30;horizontalStack=0;resizeParent=1;resizeParentMax=0;resizeLast=0;collapsible=1;marginBottom=0;whiteSpace=wrap;html=1;" vertex="1" parent="WIyWlLk6GJQsqaUBKTNV-1">
          <mxGeometry x="320" y="920" width="120" height="120" as="geometry" />
        </mxCell>
        <mxCell id="Qb_UzjCkJs9LgrEMtJJX-63" value="Name_Village" style="text;strokeColor=none;fillColor=none;align=center;verticalAlign=middle;spacingLeft=4;spacingRight=4;overflow=hidden;points=[[0,0.5],[1,0.5]];portConstraint=eastwest;rotatable=0;whiteSpace=wrap;html=1;" vertex="1" parent="Qb_UzjCkJs9LgrEMtJJX-62">
          <mxGeometry y="30" width="120" height="30" as="geometry" />
        </mxCell>
        <mxCell id="Qb_UzjCkJs9LgrEMtJJX-74" value="" style="endArrow=none;html=1;rounded=0;entryX=1;entryY=0;entryDx=0;entryDy=0;exitX=0;exitY=0;exitDx=0;exitDy=0;" edge="1" parent="Qb_UzjCkJs9LgrEMtJJX-62" source="Qb_UzjCkJs9LgrEMtJJX-73" target="Qb_UzjCkJs9LgrEMtJJX-73">
          <mxGeometry width="50" height="50" relative="1" as="geometry">
            <mxPoint x="15" y="60" as="sourcePoint" />
            <mxPoint x="105" y="60" as="targetPoint" />
          </mxGeometry>
        </mxCell>
        <mxCell id="Qb_UzjCkJs9LgrEMtJJX-73" value="getName_Village()" style="text;html=1;align=center;verticalAlign=middle;whiteSpace=wrap;rounded=0;" vertex="1" parent="Qb_UzjCkJs9LgrEMtJJX-62">
          <mxGeometry y="60" width="120" height="30" as="geometry" />
        </mxCell>
        <mxCell id="Qb_UzjCkJs9LgrEMtJJX-75" value="setName_Village()" style="text;html=1;align=center;verticalAlign=middle;whiteSpace=wrap;rounded=0;" vertex="1" parent="Qb_UzjCkJs9LgrEMtJJX-62">
          <mxGeometry y="90" width="120" height="30" as="geometry" />
        </mxCell>
        <mxCell id="Qb_UzjCkJs9LgrEMtJJX-66" value="Country" style="swimlane;fontStyle=0;childLayout=stackLayout;horizontal=1;startSize=30;horizontalStack=0;resizeParent=1;resizeParentMax=0;resizeLast=0;collapsible=1;marginBottom=0;whiteSpace=wrap;html=1;" vertex="1" parent="WIyWlLk6GJQsqaUBKTNV-1">
          <mxGeometry x="520" y="920" width="120" height="120" as="geometry" />
        </mxCell>
        <mxCell id="Qb_UzjCkJs9LgrEMtJJX-67" value="Name_Country" style="text;strokeColor=none;fillColor=none;align=center;verticalAlign=middle;spacingLeft=4;spacingRight=4;overflow=hidden;points=[[0,0.5],[1,0.5]];portConstraint=eastwest;rotatable=0;whiteSpace=wrap;html=1;" vertex="1" parent="Qb_UzjCkJs9LgrEMtJJX-66">
          <mxGeometry y="30" width="120" height="30" as="geometry" />
        </mxCell>
        <mxCell id="Qb_UzjCkJs9LgrEMtJJX-78" value="" style="endArrow=none;html=1;rounded=0;entryX=1;entryY=0;entryDx=0;entryDy=0;exitX=0;exitY=0;exitDx=0;exitDy=0;" edge="1" parent="Qb_UzjCkJs9LgrEMtJJX-66" source="Qb_UzjCkJs9LgrEMtJJX-76" target="Qb_UzjCkJs9LgrEMtJJX-76">
          <mxGeometry width="50" height="50" relative="1" as="geometry">
            <mxPoint x="10" y="60" as="sourcePoint" />
            <mxPoint x="90" y="60" as="targetPoint" />
          </mxGeometry>
        </mxCell>
        <mxCell id="Qb_UzjCkJs9LgrEMtJJX-76" value="getName_Country()" style="text;html=1;align=center;verticalAlign=middle;whiteSpace=wrap;rounded=0;" vertex="1" parent="Qb_UzjCkJs9LgrEMtJJX-66">
          <mxGeometry y="60" width="120" height="30" as="geometry" />
        </mxCell>
        <mxCell id="Qb_UzjCkJs9LgrEMtJJX-77" value="setName_Country()" style="text;html=1;align=center;verticalAlign=middle;whiteSpace=wrap;rounded=0;" vertex="1" parent="Qb_UzjCkJs9LgrEMtJJX-66">
          <mxGeometry y="90" width="120" height="30" as="geometry" />
        </mxCell>
        <mxCell id="Qb_UzjCkJs9LgrEMtJJX-71" style="edgeStyle=orthogonalEdgeStyle;rounded=0;orthogonalLoop=1;jettySize=auto;html=1;entryX=0.5;entryY=0;entryDx=0;entryDy=0;" edge="1" parent="WIyWlLk6GJQsqaUBKTNV-1" source="Qb_UzjCkJs9LgrEMtJJX-58" target="Qb_UzjCkJs9LgrEMtJJX-62">
          <mxGeometry relative="1" as="geometry" />
        </mxCell>
      </root>
    </mxGraphModel>
  </diagram>
</mxfile>
